ModelForces
version=1
nRows=4
nColumns=206
inDegrees=no

This file contains the forces exerted on a model during a simulation.

A force is a generalized force, meaning that it can be either a force (N) or a torque (Nm).

Units are S.I. units (second, meters, Newtons, ...)
Angles are in degrees.

endheader
time	glut_med1_r	glut_med2_r	glut_med3_r	glut_min1_r	glut_min2_r	glut_min3_r	semimem_r	semiten_r	bifemlh_r	bifemsh_r	sar_r	add_long_r	add_brev_r	add_mag1_r	add_mag2_r	add_mag3_r	tfl_r	pect_r	grac_r	glut_max1_r	glut_max2_r	glut_max3_r	iliacus_r	psoas_r	quad_fem_r	gem_r	peri_r	rect_fem_r	vas_med_r	vas_int_r	vas_lat_r	med_gas_r	lat_gas_r	soleus_r	tib_post_r	flex_dig_r	flex_hal_r	tib_ant_r	per_brev_r	per_long_r	per_tert_r	ext_dig_r	ext_hal_r	glut_med1_l	glut_med2_l	glut_med3_l	glut_min1_l	glut_min2_l	glut_min3_l	semimem_l	semiten_l	bifemlh_l	bifemsh_l	sar_l	add_long_l	add_brev_l	add_mag1_l	add_mag2_l	add_mag3_l	tfl_l	pect_l	grac_l	glut_max1_l	glut_max2_l	glut_max3_l	iliacus_l	psoas_l	quad_fem_l	gem_l	peri_l	rect_fem_l	vas_med_l	vas_int_l	vas_lat_l	med_gas_l	lat_gas_l	soleus_l	tib_post_l	flex_dig_l	flex_hal_l	tib_ant_l	per_brev_l	per_long_l	per_tert_l	ext_dig_l	ext_hal_l	ercspn_r	ercspn_l	intobl_r	intobl_l	extobl_r	extobl_l	femur_lat_meniscii_l.femur_lat_l.force.X	femur_lat_meniscii_l.femur_lat_l.force.Y	femur_lat_meniscii_l.femur_lat_l.force.Z	femur_lat_meniscii_l.femur_lat_l.torque.X	femur_lat_meniscii_l.femur_lat_l.torque.Y	femur_lat_meniscii_l.femur_lat_l.torque.Z	femur_lat_meniscii_l.meniscus_lat_l.force.X	femur_lat_meniscii_l.meniscus_lat_l.force.Y	femur_lat_meniscii_l.meniscus_lat_l.force.Z	femur_lat_meniscii_l.meniscus_lat_l.torque.X	femur_lat_meniscii_l.meniscus_lat_l.torque.Y	femur_lat_meniscii_l.meniscus_lat_l.torque.Z	femur_med_meniscii_l.femur_med_l.force.X	femur_med_meniscii_l.femur_med_l.force.Y	femur_med_meniscii_l.femur_med_l.force.Z	femur_med_meniscii_l.femur_med_l.torque.X	femur_med_meniscii_l.femur_med_l.torque.Y	femur_med_meniscii_l.femur_med_l.torque.Z	femur_med_meniscii_l.meniscus_med_l.force.X	femur_med_meniscii_l.meniscus_med_l.force.Y	femur_med_meniscii_l.meniscus_med_l.force.Z	femur_med_meniscii_l.meniscus_med_l.torque.X	femur_med_meniscii_l.meniscus_med_l.torque.Y	femur_med_meniscii_l.meniscus_med_l.torque.Z	femur_lat_meniscii_r.femur_lat_r.force.X	femur_lat_meniscii_r.femur_lat_r.force.Y	femur_lat_meniscii_r.femur_lat_r.force.Z	femur_lat_meniscii_r.femur_lat_r.torque.X	femur_lat_meniscii_r.femur_lat_r.torque.Y	femur_lat_meniscii_r.femur_lat_r.torque.Z	femur_lat_meniscii_r.meniscus_lat_r.force.X	femur_lat_meniscii_r.meniscus_lat_r.force.Y	femur_lat_meniscii_r.meniscus_lat_r.force.Z	femur_lat_meniscii_r.meniscus_lat_r.torque.X	femur_lat_meniscii_r.meniscus_lat_r.torque.Y	femur_lat_meniscii_r.meniscus_lat_r.torque.Z	femur_med_meniscii_r.femur_med_r.force.X	femur_med_meniscii_r.femur_med_r.force.Y	femur_med_meniscii_r.femur_med_r.force.Z	femur_med_meniscii_r.femur_med_r.torque.X	femur_med_meniscii_r.femur_med_r.torque.Y	femur_med_meniscii_r.femur_med_r.torque.Z	femur_med_meniscii_r.meniscus_med_r.force.X	femur_med_meniscii_r.meniscus_med_r.force.Y	femur_med_meniscii_r.meniscus_med_r.force.Z	femur_med_meniscii_r.meniscus_med_r.torque.X	femur_med_meniscii_r.meniscus_med_r.torque.Y	femur_med_meniscii_r.meniscus_med_r.torque.Z	femur_med_tibia_l.tibia_upper_l.force.X	femur_med_tibia_l.tibia_upper_l.force.Y	femur_med_tibia_l.tibia_upper_l.force.Z	femur_med_tibia_l.tibia_upper_l.torque.X	femur_med_tibia_l.tibia_upper_l.torque.Y	femur_med_tibia_l.tibia_upper_l.torque.Z	femur_med_tibia_l.femur_med_l.force.X	femur_med_tibia_l.femur_med_l.force.Y	femur_med_tibia_l.femur_med_l.force.Z	femur_med_tibia_l.femur_med_l.torque.X	femur_med_tibia_l.femur_med_l.torque.Y	femur_med_tibia_l.femur_med_l.torque.Z	femur_lat_tibia_l.tibia_upper_l.force.X	femur_lat_tibia_l.tibia_upper_l.force.Y	femur_lat_tibia_l.tibia_upper_l.force.Z	femur_lat_tibia_l.tibia_upper_l.torque.X	femur_lat_tibia_l.tibia_upper_l.torque.Y	femur_lat_tibia_l.tibia_upper_l.torque.Z	femur_lat_tibia_l.femur_lat_l.force.X	femur_lat_tibia_l.femur_lat_l.force.Y	femur_lat_tibia_l.femur_lat_l.force.Z	femur_lat_tibia_l.femur_lat_l.torque.X	femur_lat_tibia_l.femur_lat_l.torque.Y	femur_lat_tibia_l.femur_lat_l.torque.Z	femur_med_tibia_r.tibia_upper_r.force.X	femur_med_tibia_r.tibia_upper_r.force.Y	femur_med_tibia_r.tibia_upper_r.force.Z	femur_med_tibia_r.tibia_upper_r.torque.X	femur_med_tibia_r.tibia_upper_r.torque.Y	femur_med_tibia_r.tibia_upper_r.torque.Z	femur_med_tibia_r.femur_med_r.force.X	femur_med_tibia_r.femur_med_r.force.Y	femur_med_tibia_r.femur_med_r.force.Z	femur_med_tibia_r.femur_med_r.torque.X	femur_med_tibia_r.femur_med_r.torque.Y	femur_med_tibia_r.femur_med_r.torque.Z	femur_lat_tibia_r.tibia_upper_r.force.X	femur_lat_tibia_r.tibia_upper_r.force.Y	femur_lat_tibia_r.tibia_upper_r.force.Z	femur_lat_tibia_r.tibia_upper_r.torque.X	femur_lat_tibia_r.tibia_upper_r.torque.Y	femur_lat_tibia_r.tibia_upper_r.torque.Z	femur_lat_tibia_r.femur_lat_r.force.X	femur_lat_tibia_r.femur_lat_r.force.Y	femur_lat_tibia_r.femur_lat_r.force.Z	femur_lat_tibia_r.femur_lat_r.torque.X	femur_lat_tibia_r.femur_lat_r.torque.Y	femur_lat_tibia_r.femur_lat_r.torque.Z	aACL_R	pACL_R	aPCL_R	pPCL_R	aMCL_R	mMCL_R	pMCL_R	aLCL_R	mLCL_R	pLCL_R	aPCL_L	pPCL_L	aMCL_L	aLCL_L	ground_prescribedForce_0_fx	ground_prescribedForce_0_fy	ground_prescribedForce_0_fz
      0.00000000	     37.48087652	     28.28714471	     30.25598133	     13.28977762	     14.47626353	     15.91713841	     41.91604554	     20.39409361	     37.70804409	     36.02754664	      7.58998984	     27.93927808	     20.68957741	     14.51222487	     12.16230296	     19.66717628	     12.69197704	     11.16605282	      7.77608382	     18.12681708	     27.55933735	     20.56469162	     63.94906620	     55.74758807	     18.09791099	      9.16719286	     20.03897647	     52.55469672	     32.38176469	     32.82510377	     40.14722941	     67.39492298	     31.74693446	    152.72720615	     92.44658902	     14.93332009	     15.26895791	     41.82851940	     21.62523106	     46.40594865	      8.86060096	     25.04818486	      7.96045570	     37.48087652	     28.28714471	     30.25598133	     13.28977762	     14.47626353	     15.91713841	     42.06683902	     20.39635155	     37.67631238	     36.01822118	      7.59254209	     27.93927808	     20.68957741	     14.51222487	     12.16230296	     19.66717628	     12.58139899	     11.16605282	      7.78214370	     18.12681708	     27.55933735	     20.56469162	     63.94906620	     55.74758807	     18.09791099	      9.16719286	     20.03897647	     52.59637061	     32.48786114	     37.22481259	     39.87514307	     67.71424671	     31.64857027	    152.72720615	     92.44658902	     14.93332009	     15.26895791	     41.82851940	     21.62523106	     46.40594865	      8.86060096	     25.04818486	      7.96045570	    124.99446086	    124.99446086	     44.97041513	     44.97041513	     60.98287244	     60.98287244	      2.76307435	     50.99597937	     -9.56042239	      5.21997485	     -0.02578839	      1.48581788	     -2.76307435	    -50.99597937	      9.56042239	     -1.74637766	      0.02558040	     -0.48301696	     -3.31599387	     20.97615968	     -3.40468921	      0.94473225	     -0.02138609	     -1.00501789	      3.31599387	    -20.97615968	      3.40468921	      0.28075727	      0.00368718	     -0.29758878	      0.13243531	      0.28299364	      0.00246511	     -0.00837665	      0.00349976	      0.05534422	     -0.13243531	     -0.28299364	     -0.00246511	      0.00891056	     -0.00419209	     -0.00454827	      0.08239412	      3.64420958	      0.29868801	     -0.04628927	     -0.00646305	      0.09076941	     -0.08239412	     -3.64420958	     -0.29868801	     -0.04962961	      0.00624440	     -0.06164219	      0.00000000	      0.00000000	      0.00000000	      0.00000000	      0.00000000	      0.00000000	      0.00000000	      0.00000000	      0.00000000	      0.00000000	      0.00000000	      0.00000000	      0.00000000	      0.00000000	      0.00000000	      0.00000000	      0.00000000	      0.00000000	      0.00000000	      0.00000000	      0.00000000	      0.00000000	      0.00000000	      0.00000000	      0.00000000	      0.00000000	      0.00000000	      0.00000000	      0.00000000	      0.00000000	      0.00000000	      0.00000000	      0.00000000	      0.00000000	      0.00000000	      0.00000000	      0.00000000	      0.00000000	      0.00000000	      0.00000000	      0.00000000	      0.00000000	      0.00000000	      0.00000000	      0.00000000	      0.00000000	      0.00000000	      0.00000000	     17.58855542	     41.35427838	      0.00000000	      0.00000000	      0.00000000	      4.34794595	     27.64210719	      1.86146449	      0.00000000	      2.98101398	      0.00000000	      0.00000000	      0.00000001	      0.00000000	    110.00000000	      0.00000000	      0.00000000
      0.00100000	     37.47068608	     28.27022932	     30.24086714	     13.26950867	     14.46480712	     15.91260065	     40.73059168	     19.69735759	     36.61569077	     32.59839636	      7.04880408	     27.92554748	     20.64313666	     14.50364319	     12.15716021	     19.66293667	     12.43842491	     11.15324218	      7.26140084	     18.11779344	     27.54583488	     20.55620729	     63.92578024	     55.73415570	     18.08271668	      9.16509816	     20.03713766	     50.98006889	     29.74222496	     30.10215352	     37.14028894	     64.47043914	     30.37018716	    148.36317209	     91.82458531	     14.95196478	     15.24943036	     42.98222767	     21.61220678	     46.30556213	      9.25870660	     25.32719789	      8.04782481	     37.47068608	     28.27022932	     30.24086714	     13.26950867	     14.46480712	     15.91260065	     42.06228881	     20.39020965	     37.67123261	     35.98888344	      7.57882260	     27.92554748	     20.64313666	     14.50364319	     12.15716021	     19.66293667	     12.58033419	     11.15324218	      7.77413879	     18.11779344	     27.54583488	     20.55620729	     63.92578024	     55.73415570	     18.08271668	      9.16509816	     20.03713766	     52.58867645	     32.47668845	     37.21372981	     39.86386325	     67.70976811	     31.64643975	    152.71327822	     92.44307771	     14.93402208	     15.26942871	     41.82127614	     21.62263156	     46.40335095	      8.85785788	     25.04326423	      7.95848292	    124.81723588	    124.81723588	     44.95337082	     44.95337082	     60.96445217	     60.96445217	      2.76307435	     50.99597937	     -9.56042239	      5.21997485	     -0.02578839	      1.48581788	     -2.76307435	    -50.99597937	      9.56042239	     -1.74637766	      0.02558040	     -0.48301696	     -3.31599387	     20.97615968	     -3.40468921	      0.94473225	     -0.02138609	     -1.00501789	      3.31599387	    -20.97615968	      3.40468921	      0.28075727	      0.00368718	     -0.29758878	      0.36210763	      1.42462577	      0.07097844	     -0.06728943	      0.00957748	      0.15378981	     -0.36210763	     -1.42462577	     -0.07097844	      0.04741800	     -0.01142314	     -0.01536792	      1.49052215	      8.27082727	      1.08210480	     -0.27697594	     -0.04950153	      0.73695553	     -1.49052215	     -8.27082727	     -1.08210480	     -0.09637339	      0.04245946	     -0.16886895	      0.00000000	      0.00000000	      0.00000000	      0.00000000	      0.00000000	      0.00000000	      0.00000000	      0.00000000	      0.00000000	      0.00000000	      0.00000000	      0.00000000	      0.00000000	      0.00000000	      0.00000000	      0.00000000	      0.00000000	      0.00000000	      0.00000000	      0.00000000	      0.00000000	      0.00000000	      0.00000000	      0.00000000	      0.00000000	      0.00000000	      0.00000000	      0.00000000	      0.00000000	      0.00000000	      0.00000000	      0.00000000	      0.00000000	      0.00000000	      0.00000000	      0.00000000	      0.00000000	      0.00000000	      0.00000000	      0.00000000	      0.00000000	      0.00000000	      0.00000000	      0.00000000	      0.00000000	      0.00000000	      0.00000000	      0.00000000	     -9.75983040	     11.94527925	      0.00000000	      0.00000000	      0.00000000	    -50.29725933	    -26.79854885	    -69.56652444	      0.00000000	    -69.36876971	      0.00000000	      0.00000000	      0.00000001	      0.00000000	    110.00000000	      0.00000000	      0.00000000
      0.00330111	     37.37149272	     28.11414419	     30.09913841	     13.10840462	     14.36264717	     15.86852099	     34.89499139	     16.57314157	     31.35992040	     21.67210047	      5.80829025	     27.79663927	     20.31356662	     14.42438598	     12.10833697	     19.62128787	     11.12779744	     11.04510680	      5.58792143	     18.03317370	     27.41905005	     20.47552333	     63.70548021	     55.60286860	     17.94792687	      9.14466947	     20.01869716	     43.37545232	     19.07584812	     18.57934006	     23.83727365	     48.12397650	     22.74410332	    118.83092799	     86.76352820	     15.14742667	     15.16680839	     51.67531344	     21.86902315	     45.90038228	     12.44918265	     27.27875651	      8.59021135	     37.37149272	     28.11414419	     30.09913841	     13.10840462	     14.36264717	     15.86852099	     42.01679543	     20.33070104	     37.62065821	     35.72755004	      7.47454035	     27.79663927	     20.31356662	     14.42438598	     12.10833697	     19.62128787	     12.56966237	     11.04510680	      7.70526242	     18.03317370	     27.41905005	     20.47552333	     63.70548021	     55.60286860	     17.94792687	      9.14466947	     20.01869716	     52.51221179	     32.36924503	     37.10633690	     39.75430199	     67.66466429	     31.62498609	    152.57358556	     92.40762229	     14.94067888	     15.27375105	     41.74960974	     21.59667967	     46.37713826	      8.83135103	     24.99487766	      7.93918198	    123.38435884	    123.38435884	     44.79033429	     44.79033429	     60.78957562	     60.78957562	      2.76307435	     50.99597937	     -9.56042239	      5.21997485	     -0.02578839	      1.48581788	     -2.76307435	    -50.99597937	      9.56042239	     -1.74637766	      0.02558040	     -0.48301696	     -3.31599387	     20.97615968	     -3.40468921	      0.94473225	     -0.02138609	     -1.00501789	      3.31599387	    -20.97615968	      3.40468921	      0.28075727	      0.00368718	     -0.29758878	      3.86580029	     21.41665074	      4.06963267	     -2.27807887	      0.08592184	      1.68835297	     -3.86580029	    -21.41665074	     -4.06963267	      0.82263169	     -0.10335627	     -0.21405398	     20.54226369	     48.48456233	     13.26209536	     -4.55697480	     -0.60526104	      9.13432971	    -20.54226369	    -48.48456233	    -13.26209536	     -0.29593709	      0.50746740	     -1.25991210	      0.00000000	      0.00000000	      0.00000000	      0.00000000	      0.00000000	      0.00000000	      0.00000000	      0.00000000	      0.00000000	      0.00000000	      0.00000000	      0.00000000	      0.00000000	      0.00000000	      0.00000000	      0.00000000	      0.00000000	      0.00000000	      0.00000000	      0.00000000	      0.00000000	      0.00000000	      0.00000000	      0.00000000	      0.00000000	      0.00000000	      0.00000000	      0.00000000	      0.00000000	      0.00000000	      0.00000000	      0.00000000	      0.00000000	      0.00000000	      0.00000000	      0.00000000	      0.00000000	      0.00000000	      0.00000000	      0.00000000	      0.00000000	      0.00000000	      0.00000000	      0.00000000	      0.00000000	      0.00000000	      0.00000000	      0.00000000	    -25.39252168	    -10.00622695	      0.00000000	      0.00000000	      0.00000000	    -68.42102614	    -46.01993931	    -95.90810673	      0.00000000	    -96.70670052	      0.00000000	      0.00000000	      0.00000001	      0.00000000	    110.00000000	      0.00000000	      0.00000000
      0.00560221	     37.17175821	     27.82217664	     29.82820016	     12.85730903	     14.17990580	     15.78002442	     30.73687433	     14.79238436	     27.56402663	     18.97038152	      5.82664367	     27.54980138	     19.85640019	     14.27592937	     12.01339830	     19.53631286	     10.06275029	     10.86439399	      5.19924371	     17.87136383	     27.17619209	     20.31826585	     63.27911114	     55.33696304	     17.70841251	      9.10341915	     19.97992780	     38.02340751	     14.57981476	     12.92377589	     16.60235427	     32.88629599	     15.68231771	     84.01483560	     78.88232424	     15.49572772	     15.13379695	     62.76375690	     22.89657950	     45.93553765	     14.01779707	     29.88210272	      9.16614861	     37.17175821	     27.82217664	     29.82820016	     12.85730903	     14.17990580	     15.78002442	     41.92157091	     20.21166472	     37.51545193	     35.26070122	      7.31966321	     27.54980138	     19.85640019	     14.27592937	     12.01339830	     19.53631286	     12.54724563	     10.86439399	      7.58746342	     17.87136383	     27.17619209	     20.31826585	     63.27911114	     55.33696304	     17.70841251	      9.10341915	     19.97992780	     52.35357361	     32.15651047	     36.89142606	     39.53429322	     67.56924261	     31.57960819	    152.27984012	     92.33231641	     14.95331127	     15.28143493	     41.60187948	     21.54247990	     46.32152286	      8.77852601	     24.89639501	      7.90020262	    121.10781062	    121.10781062	     44.47002984	     44.47002984	     60.44943761	     60.44943761	      2.76307435	     50.99597937	     -9.56042239	      5.21997485	     -0.02578839	      1.48581788	     -2.76307435	    -50.99597937	      9.56042239	     -1.74637766	      0.02558040	     -0.48301696	     -3.31599387	     20.97615968	     -3.40468921	      0.94473225	     -0.02138609	     -1.00501789	      3.31599387	    -20.97615968	      3.40468921	      0.28075727	      0.00368718	     -0.29758878	     12.56260091	     55.80455071	     11.79619906	     -6.39971627	      0.26297207	      5.47368537	    -12.56260091	    -55.80455071	    -11.79619906	      2.14516000	     -0.32089236	     -0.66870475	     58.87645148	     92.87257863	     27.95260418	     -9.78708239	     -1.62335581	     25.68095831	    -58.87645148	    -92.87257863	    -27.95260418	     -0.49337773	      1.33914255	     -3.08296977	      0.00000000	      0.00000000	      0.00000000	      0.00000000	      0.00000000	      0.00000000	      0.00000000	      0.00000000	      0.00000000	      0.00000000	      0.00000000	      0.00000000	      0.00000000	      0.00000000	      0.00000000	      0.00000000	      0.00000000	      0.00000000	      0.00000000	      0.00000000	      0.00000000	      0.00000000	      0.00000000	      0.00000000	     -0.86313034	     -2.17850199	     -0.01426716	     -0.01732622	      0.00729678	     -0.06391442	      0.86313034	      2.17850199	      0.01426716	      0.02283884	     -0.01164802	      0.39482008	      0.00000000	      0.00000000	      0.00000000	      0.00000000	      0.00000000	      0.00000000	      0.00000000	      0.00000000	      0.00000000	      0.00000000	      0.00000000	      0.00000000	    -13.95640717	     -2.11150549	      0.00000000	      0.00000000	      0.00000000	    -42.58925572	    -21.50661706	    -66.33795270	      0.00000000	    -67.27688194	      0.00000000	      0.00000000	      0.00000001	      0.00000000	    110.00000000	      0.00000000	      0.00000000
